<?xml version="1.0" standalone="no"?>
<!DOCTYPE svg PUBLIC "-//W3C//DTD SVG 20010904//EN"
 "http://www.w3.org/TR/2001/REC-SVG-20010904/DTD/svg10.dtd">
<svg version="1.0" xmlns="http://www.w3.org/2000/svg"
 width="153.000000pt" height="153.000000pt" viewBox="0 0 153.000000 153.000000"
 preserveAspectRatio="xMidYMid meet">
<metadata>
Created by potrace 1.11, written by Peter Selinger 2001-2013
</metadata>
<g transform="translate(0.000000,153.000000) scale(0.100000,-0.100000)"
fill="#000000" stroke="none">
<path d="M1001 1418 c-52 -18 -103 -78 -127 -150 -33 -99 -32 -315 2 -315 11
0 14 16 14 67 0 88 26 237 49 275 41 71 132 95 217 56 56 -26 84 -64 84 -116
0 -59 -33 -105 -89 -125 -50 -17 -63 -41 -48 -85 13 -38 57 -103 92 -135 15
-14 43 -50 63 -80 31 -46 37 -52 40 -33 4 29 -20 80 -57 119 -35 38 -95 130
-105 162 -8 23 -7 23 46 -7 57 -32 113 -40 149 -21 28 16 24 27 -23 57 -65 41
-70 50 -51 87 30 58 15 163 -30 204 -49 45 -153 63 -226 40z m277 -347 c28
-15 29 -31 2 -31 -19 0 -54 15 -90 39 -13 9 -12 12 5 25 18 13 22 13 40 -3 11
-10 30 -24 43 -30z"/>
<path d="M1161 1210 c-17 -10 -7 -40 13 -40 7 0 16 6 19 14 8 19 -15 37 -32
26z"/>
<path d="M507 910 c-74 -9 -280 -51 -274 -56 2 -2 54 -6 117 -9 215 -10 298
-30 605 -145 205 -77 380 -133 397 -128 18 6 -40 97 -101 159 -76 76 -171 127
-296 160 -89 23 -326 33 -448 19z"/>
<path d="M146 789 c9 -15 208 -128 344 -195 333 -165 605 -214 764 -139 31 14
56 30 56 35 0 12 -291 133 -433 181 -126 42 -288 83 -372 94 -27 4 -52 9 -55
10 -19 12 -311 25 -304 14z"/>
<path d="M182 678 c56 -71 199 -211 273 -266 73 -54 220 -132 249 -132 10 0
27 -5 38 -11 30 -16 165 -13 220 4 50 16 143 66 135 73 -2 2 -27 6 -55 9 -124
12 -299 67 -485 150 -124 56 -372 189 -382 205 -4 6 -11 10 -16 10 -6 0 4 -19
23 -42z"/>
</g>
</svg>
